# xmcd CD database file
#
# Track frame offsets:
#	150
#	3520
#	25450
#	45963
#	62634
#	83982
#	104309
#	123408
#	140918
#	161907
#	183053
#
# Disc length: 2731 seconds
#
# Revision: 6
# Processed by: cddbd v1.5.2PL0 Copyright (c) Steve Scherf et al.
# Submitted via: CDex 1.70beta2
#
DISCID=8f0aa90b
DTITLE=Dr. Feelgood - Motley Crue
DYEAR=1989
DGENRE=Rock
TTITLE0=T. N T. (Terror 'n Tinseltown)
TTITLE1=Dr. Feelgood
TTITLE2=Slice Of Your Pie
TTITLE3=Rattlesnake Shake
TTITLE4=Kickstart My Heart
TTITLE5=Without You
TTITLE6=Same Ol' Situation (S.O.S.)
TTITLE7=Sticky Sweet
TTITLE8=She Goes Down
TTITLE9=Don't Go Away Mad (Just Go Away)
TTITLE10=Time For Change
EXTD=YEAR: 1989
EXTT0=
EXTT1=
EXTT2=
EXTT3=
EXTT4=
EXTT5=
EXTT6=
EXTT7=
EXTT8=
EXTT9=
EXTT10=
PLAYORDER=
